<svg id="Layer_1" data-name="Layer 1" xmlns="http://www.w3.org/2000/svg" viewBox="0 0 129.37 130.72"><defs><style>.cls-1{fill:#ffe501;}</style></defs><title>logo</title><path class="cls-1" d="M319.52,1474.33h-37c-4.83,0-9.45,4.05-9.45,9v37.9c0,5,4.62,9,9.45,9h37c4.84,0,9.45-4,9.45-9v-37.9c0-5-4.61-9-9.45-9m0,46.93h-37v-37.9h37Z" transform="translate(-273.02 -1399.58)"/><path class="cls-1" d="M383.11,1502.05,401,1474.33H389.6l-13.25,20.6a5.22,5.22,0,0,1-4.36,2.37h-.83a5.24,5.24,0,0,1-4.36-2.37l-13.2-20.6H342.26l17.85,27.85-19,28.11H352.6l14.62-21.59a5.22,5.22,0,0,1,4.35-2.37h.21a5.26,5.26,0,0,1,4.36,2.37l14.69,21.59h11.56Z" transform="translate(-273.02 -1399.58)"/><path class="cls-1" d="M297.14,1422.6l-5.32,9h27.65v14.94h-37v-37.91h41.12l5.35-9H282.49c-4.84,0-9.46,4.05-9.46,9v37.91c0,5,4.62,9,9.46,9h37c4.83,0,9.46-4,9.46-9v-24Z" transform="translate(-273.02 -1399.58)"/><path class="cls-1" d="M389.63,1399.58H348.75v56.05h40.88c4.85,0,9.47-4.05,9.47-9V1436c0-5-3-9-7.84-9,4.85,0,7.84-4,7.84-9v-9.29c0-5-4.62-9-9.47-9m0,43.29a3.66,3.66,0,0,1-3.6,3.72h-27.8v-15H386a3.65,3.65,0,0,1,3.6,3.71Zm0-24a3.65,3.65,0,0,1-3.6,3.71h-27.8v-14H386a3.66,3.66,0,0,1,3.6,3.72Z" transform="translate(-273.02 -1399.58)"/></svg>