<?xml version="1.0" encoding="utf-8"?>
<!-- Generator: Adobe Illustrator 24.3.0, SVG Export Plug-In . SVG Version: 6.00 Build 0)  -->
<svg version="1.1" id="Layer_1" xmlns="http://www.w3.org/2000/svg" xmlns:xlink="http://www.w3.org/1999/xlink" x="0px" y="0px"
	 viewBox="0 0 1190.55 3190" style="enable-background:new 0 0 1190.55 3190;" xml:space="preserve">
<style type="text/css">
	.st0{fill:#FFDD00;}
</style>
<g>
	<g>
		<g>
			<path class="st0" d="M462.24,649.61H160.92c-39.33,0-76.91,32.9-76.91,73.45v308.28c0,40.57,37.58,73.45,76.91,73.45h301.31
				c39.36,0,76.92-32.88,76.92-73.45V723.06C539.16,682.51,501.6,649.61,462.24,649.61 M462.24,1031.35H160.92V723.06h301.31
				V1031.35z"/>
		</g>
		<g>
			<path class="st0" d="M979.52,875.09l145.07-225.48h-92.34L924.54,817.13c-7.74,11.66-20.71,19.29-35.46,19.29h-6.81
				c-14.73,0-27.75-7.63-35.47-19.29L739.43,649.61h-92.2L792.42,876.1l-154.89,228.7h93.84l118.84-175.64
				c7.73-11.64,20.71-19.3,35.44-19.3h1.69c14.68,0,27.68,7.66,35.46,19.3l119.5,175.64h94L979.52,875.09z"/>
		</g>
		<g>
			<path class="st0" d="M280.25,228.85l-43.34,73.36h224.91v121.48H161.05V115.4h334.51l43.48-73.45h-378
				c-39.31,0-76.91,32.9-76.91,73.45v308.28c0,40.57,37.6,73.45,76.91,73.45h300.78c39.35,0,76.94-32.88,76.94-73.45V228.85H280.25z
				"/>
		</g>
		<g>
			<path class="st0" d="M1032.54,41.58h-332.5v455.93h332.5c39.41,0,77.05-32.94,77.05-73.58v-86.14
				c0-40.62-24.39-73.58-63.81-73.58c39.43,0,63.81-32.93,63.81-73.54v-75.52C1109.59,74.52,1071.95,41.58,1032.54,41.58
				 M1032.54,393.71c0,16.71-13.14,30.21-29.3,30.21H777.1V302.26h226.14c16.16,0,29.3,13.54,29.3,30.21V393.71z M1032.54,198.5
				c0,16.68-13.14,30.21-29.3,30.21H777.1V115.15h226.14c16.16,0,29.3,13.51,29.3,30.2V198.5z"/>
		</g>
	</g>
</g>
</svg>